<svg width="422" height="303" viewBox="0 0 422 303" fill="none" xmlns="http://www.w3.org/2000/svg">
<g id="onlineparty 1">
<g id="frame">
<path id="Vector" d="M416.104 40.7423H5.89621C4.33297 40.7439 2.83425 41.3066 1.72887 42.3071C0.623496 43.3076 0.00173604 44.664 0 46.0789V297.663C0.00173753 299.078 0.623505 300.435 1.72888 301.435C2.83426 302.436 4.33297 302.998 5.89621 303H416.104C417.667 302.998 419.166 302.436 420.271 301.435C421.376 300.435 421.998 299.078 422 297.663V46.0789C421.998 44.664 421.376 43.3076 420.271 42.3071C419.166 41.3066 417.667 40.7439 416.104 40.7423V40.7423ZM420.315 297.663C420.315 298.674 419.871 299.644 419.081 300.358C418.292 301.073 417.221 301.475 416.104 301.475H5.89621C4.77936 301.475 3.70838 301.073 2.91865 300.358C2.12892 299.644 1.68506 298.674 1.68462 297.663V46.0789C1.68506 45.0681 2.12893 44.0987 2.91866 43.3839C3.70839 42.6692 4.77936 42.2674 5.89621 42.267H416.104C417.221 42.2674 418.292 42.6692 419.081 43.3839C419.871 44.0987 420.315 45.0681 420.315 46.0789V297.663Z" fill="#3F3D56"/>
<path id="Vector_2" d="M421.158 62.1193H0.842285V63.6441H421.158V62.1193Z" fill="#3F3D56"/>
<path id="Vector_3" d="M15.1617 56.7522C17.9529 56.7522 20.2156 54.7042 20.2156 52.1779C20.2156 49.6516 17.9529 47.6037 15.1617 47.6037C12.3705 47.6037 10.1078 49.6516 10.1078 52.1779C10.1078 54.7042 12.3705 56.7522 15.1617 56.7522Z" fill="#F84848"/>
<path id="Vector_4" d="M29.6916 56.7522C32.4828 56.7522 34.7455 54.7042 34.7455 52.1779C34.7455 49.6516 32.4828 47.6037 29.6916 47.6037C26.9004 47.6037 24.6377 49.6516 24.6377 52.1779C24.6377 54.7042 26.9004 56.7522 29.6916 56.7522Z" fill="#7B70FF"/>
<path id="Vector_5" d="M44.2215 56.7522C47.0127 56.7522 49.2754 54.7042 49.2754 52.1779C49.2754 49.6516 47.0127 47.6037 44.2215 47.6037C41.4303 47.6037 39.1676 49.6516 39.1676 52.1779C39.1676 54.7042 41.4303 56.7522 44.2215 56.7522Z" fill="#15B725"/>
</g>
<path id="Vector_6" d="M326.365 61.4758C330.201 63.5985 333.131 67.2193 334.55 71.5908C335.969 75.9624 335.767 80.7509 333.988 84.9681C333.591 85.9377 335.052 86.4477 335.447 85.4843C337.315 80.9214 337.505 75.7699 335.979 71.0631C334.452 66.3562 331.323 62.4419 327.217 60.1053C326.35 59.613 325.492 60.9798 326.365 61.4758Z" fill="white"/>
<path id="Vector_7" d="M194.5 124C195.328 124 196 123.552 196 123C196 122.448 195.328 122 194.5 122C193.672 122 193 122.448 193 123C193 123.552 193.672 124 194.5 124Z" fill="url(#paint0_linear)"/>
<path id="Vector_8" d="M193 172C194.657 172 196 171.105 196 170C196 168.895 194.657 168 193 168C191.343 168 190 168.895 190 170C190 171.105 191.343 172 193 172Z" fill="url(#paint1_linear)"/>
<path id="Vector_9" d="M152 164C152.552 164 153 163.105 153 162C153 160.895 152.552 160 152 160C151.448 160 151 160.895 151 162C151 163.105 151.448 164 152 164Z" fill="url(#paint2_linear)"/>
<path id="Vector_10" d="M172.5 140C173.328 140 174 139.552 174 139C174 138.448 173.328 138 172.5 138C171.672 138 171 138.448 171 139C171 139.552 171.672 140 172.5 140Z" fill="url(#paint3_linear)"/>
<path id="Vector_11" d="M249 229C249.552 229 250 228.328 250 227.5C250 226.672 249.552 226 249 226C248.448 226 248 226.672 248 227.5C248 228.328 248.448 229 249 229Z" fill="url(#paint4_linear)"/>
<path id="Vector_12" d="M207.5 206C209.433 206 211 204.209 211 202C211 199.791 209.433 198 207.5 198C205.567 198 204 199.791 204 202C204 204.209 205.567 206 207.5 206Z" fill="url(#paint5_linear)"/>
<path id="Vector_13" d="M235.5 172C236.328 172 237 171.328 237 170.5C237 169.672 236.328 169 235.5 169C234.672 169 234 169.672 234 170.5C234 171.328 234.672 172 235.5 172Z" fill="url(#paint6_linear)"/>
<path id="Vector_14" d="M246.5 201C247.328 201 248 200.328 248 199.5C248 198.672 247.328 198 246.5 198C245.672 198 245 198.672 245 199.5C245 200.328 245.672 201 246.5 201Z" fill="url(#paint7_linear)"/>
<path id="Vector_15" d="M300 290C311.598 290 321 281.27 321 270.5C321 259.73 311.598 251 300 251C288.402 251 279 259.73 279 270.5C279 281.27 288.402 290 300 290Z" fill="#2F2E41"/>
<path id="Vector_16" d="M307 286H301V296H307V286Z" fill="#2F2E41"/>
<path id="Vector_17" d="M295 286H290V296H295V286Z" fill="#2F2E41"/>
<path id="Vector_18" d="M302.5 299C304.985 299 307 298.105 307 297C307 295.895 304.985 295 302.5 295C300.015 295 298 295.895 298 297C298 298.105 300.015 299 302.5 299Z" fill="#2F2E41"/>
<path id="Vector_19" d="M290.5 299C292.985 299 295 298.105 295 297C295 295.895 292.985 295 290.5 295C288.015 295 286 295.895 286 297C286 298.105 288.015 299 290.5 299Z" fill="#2F2E41"/>
<path id="Vector_20" d="M296.5 273C300.09 273 303 270.09 303 266.5C303 262.91 300.09 260 296.5 260C292.91 260 290 262.91 290 266.5C290 270.09 292.91 273 296.5 273Z" fill="white"/>
<path id="Vector_21" d="M110.5 290C121.822 290 131 281.27 131 270.5C131 259.73 121.822 251 110.5 251C99.1782 251 90 259.73 90 270.5C90 281.27 99.1782 290 110.5 290Z" fill="#2F2E41"/>
<path id="Vector_22" d="M106 286H100V296H106V286Z" fill="#2F2E41"/>
<path id="Vector_23" d="M120 286H115V296H120V286Z" fill="#2F2E41"/>
<path id="Vector_24" d="M106.5 299C110.09 299 113 298.105 113 297C113 295.895 110.09 295 106.5 295C102.91 295 100 295.895 100 297C100 298.105 102.91 299 106.5 299Z" fill="#2F2E41"/>
<path id="Vector_25" d="M119 299C121.209 299 123 298.105 123 297C123 295.895 121.209 295 119 295C116.791 295 115 295.895 115 297C115 298.105 116.791 299 119 299Z" fill="#2F2E41"/>
<path id="Vector_26" d="M111.5 271C115.642 271 119 268.314 119 265C119 261.686 115.642 259 111.5 259C107.358 259 104 261.686 104 265C104 268.314 107.358 271 111.5 271Z" fill="white"/>
<path id="Vector_27" d="M208 271C219.598 271 229 261.598 229 250C229 238.402 219.598 229 208 229C196.402 229 187 238.402 187 250C187 261.598 196.402 271 208 271Z" fill="#2F2E41"/>
<path id="Vector_28" d="M203 267H198V276H203V267Z" fill="#2F2E41"/>
<path id="Vector_29" d="M218 267H212V276H218V267Z" fill="#2F2E41"/>
<path id="Vector_30" d="M202.5 280C204.985 280 207 278.881 207 277.5C207 276.119 204.985 275 202.5 275C200.015 275 198 276.119 198 277.5C198 278.881 200.015 280 202.5 280Z" fill="#2F2E41"/>
<path id="Vector_31" d="M216.5 280C218.985 280 221 278.881 221 277.5C221 276.119 218.985 275 216.5 275C214.015 275 212 276.119 212 277.5C212 278.881 214.015 280 216.5 280Z" fill="#2F2E41"/>
<g id="cap">
<path id="Vector_32" d="M293.255 244.357C295.073 237.059 303.098 232.765 311.18 234.765C319.261 236.765 324.338 244.302 322.52 251.6C320.702 258.898 314.671 258.921 306.589 256.921C298.508 254.921 291.437 251.655 293.255 244.357Z" fill="url(#paint8_linear)"/>
<path id="Vector_33" d="M90.7058 250.994C89.0619 243.655 94.317 236.24 102.444 234.431C110.57 232.623 118.491 237.106 120.135 244.444C121.779 251.783 116.393 254.489 108.266 256.298C100.14 258.107 92.3498 258.333 90.7058 250.994Z" fill="url(#paint9_linear)"/>
<path id="Vector_34" d="M187.959 231.674C186.315 224.336 191.57 216.92 199.697 215.112C207.824 213.303 215.744 217.786 217.388 225.125C219.032 232.463 213.646 235.17 205.52 236.978C197.393 238.787 189.603 239.013 187.959 231.674Z" fill="url(#paint10_linear)"/>
</g>
<g id="right-hands">
<path id="Vector_35" d="M327.839 281.171C329.192 280.041 327.363 275.642 323.754 271.346C320.145 267.049 316.122 264.481 314.768 265.61C313.415 266.74 315.244 271.139 318.853 275.435C322.462 279.732 326.485 282.3 327.839 281.171Z" fill="#2F2E41"/>
<path id="Vector_36" d="M132.26 255.679C134.267 250.445 134.558 245.692 132.909 245.064C131.26 244.436 128.297 248.17 126.289 253.405C124.282 258.639 123.991 263.392 125.64 264.02C127.289 264.648 130.252 260.914 132.26 255.679Z" fill="#2F2E41"/>
<path id="Vector_37" d="M229.649 241.679C234.058 237.281 236.51 232.597 235.125 231.217C233.739 229.837 229.042 232.284 224.633 236.683C220.223 241.081 217.772 245.765 219.157 247.145C220.542 248.524 225.24 246.077 229.649 241.679Z" fill="#2F2E41"/>
</g>
<g id="left-hands">
<path id="Vector_38" d="M285.914 264.799C286.67 263.209 283.166 259.974 278.086 257.572C273.006 255.171 268.275 254.513 267.518 256.102C266.762 257.692 270.267 260.927 275.347 263.329C280.427 265.73 285.158 266.388 285.914 264.799Z" fill="#2F2E41"/>
<path id="Vector_39" d="M96.7215 264.799C97.4778 263.209 93.9729 259.974 88.893 257.572C83.8132 255.171 79.082 254.513 78.3256 256.102C77.5693 257.692 81.0742 260.927 86.154 263.329C91.2339 265.73 95.9651 266.388 96.7215 264.799Z" fill="#2F2E41"/>
<path id="Vector_40" d="M191.298 248.559C192.683 247.179 190.232 242.495 185.823 238.096C181.413 233.698 176.716 231.251 175.331 232.631C173.945 234.01 176.397 238.694 180.806 243.093C185.215 247.491 189.913 249.938 191.298 248.559Z" fill="#2F2E41"/>
</g>
<path id="Vector_41" d="M281 133.858L275.81 134C273.775 125.825 273.453 117.411 274.858 109.142L280.048 109C278.131 117.656 278.448 125.942 281 133.858Z" fill="white"/>
<path id="Vector_42" d="M306.613 130L302 128.427C303.907 120.488 307.423 112.897 312.387 106L317 107.573C311.412 114.646 307.95 122.122 306.613 130Z" fill="white"/>
<g id="right-ballon">
<path id="Vector_43" d="M133.041 96.0164C127.833 80.4995 111.75 71.8755 101.171 75.4033C90.5907 78.9311 82.9519 95.4649 88.1598 110.982C92.9802 125.345 107.587 133.636 117.635 132.157C117.563 132.282 117.515 132.42 117.495 132.564L117.188 135.118C117.164 135.313 117.191 135.51 117.266 135.692C117.34 135.873 117.46 136.033 117.614 136.155C117.768 136.277 117.951 136.358 118.145 136.39C118.339 136.422 118.538 136.404 118.723 136.338L123.899 134.488C124.085 134.422 124.25 134.31 124.379 134.162C124.509 134.014 124.598 133.836 124.639 133.644C124.68 133.452 124.671 133.253 124.613 133.066C124.555 132.879 124.45 132.709 124.307 132.574L122.442 130.796C122.375 130.735 122.302 130.683 122.223 130.639C131.186 125.825 137.872 110.41 133.041 96.0164Z" fill="url(#paint11_linear)"/>
<path id="Vector_44" d="M114.188 84.6003C118.512 86.8251 121.815 90.6201 123.414 95.2018C125.013 99.7836 124.787 104.802 122.781 109.222C122.333 110.239 123.98 110.773 124.425 109.763C126.531 104.981 126.745 99.5819 125.025 94.6487C123.304 89.7155 119.776 85.613 115.148 83.1639C114.171 82.648 113.204 84.0806 114.188 84.6003Z" fill="#E88238"/>
<path id="Vector_45" d="M343.886 73.3981C338.679 57.8813 322.596 49.2572 312.016 52.785C301.436 56.3128 293.798 72.8466 299.006 88.3635C303.826 102.726 318.433 111.018 328.481 109.538C328.409 109.664 328.361 109.802 328.341 109.946L328.033 112.5C328.01 112.695 328.037 112.892 328.111 113.074C328.186 113.255 328.306 113.414 328.46 113.537C328.614 113.659 328.796 113.74 328.991 113.772C329.185 113.804 329.384 113.786 329.569 113.72L334.745 111.87C334.93 111.804 335.095 111.692 335.225 111.544C335.354 111.396 335.444 111.218 335.485 111.026C335.526 110.834 335.517 110.635 335.459 110.448C335.401 110.26 335.295 110.091 335.153 109.955L333.287 108.178C333.221 108.117 333.148 108.065 333.069 108.021C342.031 103.207 348.717 87.7922 343.886 73.3981Z" fill="url(#paint12_linear)"/>
<path id="Vector_46" d="M357.76 138.737C365.474 119.389 358.942 98.64 343.17 92.3932C308.111 78.3956 279.633 141.295 311.065 160.341L307.909 165.64L318.375 169.786L319.729 163.773C334.466 166.645 350.767 156.278 357.76 138.737Z" fill="url(#paint13_linear)"/>
<path id="Vector_47" d="M309.35 160.28L308.303 162.907L320.165 167.606L321.212 164.978L309.35 160.28Z" fill="#3F3D56"/>
<path id="Vector_48" d="M271.058 265.134L269.826 264.435L313.923 164.129L315.155 164.827L271.058 265.134Z" fill="#3F3D56"/>
</g>
<path id="Vector_49" d="M77 153.214L72.3888 155C67.0939 147.913 63.2392 140.056 61 131.786L65.6112 130C67.5533 138.799 71.3495 146.537 77 153.214Z" fill="white"/>
<g id="left-ballon">
<path id="Vector_50" d="M331.488 121.749C330.812 100.941 316.514 84.5159 299.552 85.0633C261.801 86.1782 260.88 155.18 297.326 160.137L296.555 166.251L307.811 165.888L306.644 159.836C321.306 156.606 332.101 140.615 331.488 121.749Z" fill="url(#paint14_linear)"/>
<path id="Vector_51" d="M308.363 159.741L295.605 160.153L295.697 162.979L308.455 162.567L308.363 159.741Z" fill="#3F3D56"/>
<path id="Vector_52" d="M271.308 267.944L270.023 267.345L301.609 160.581L302.893 161.181L271.308 267.944Z" fill="#3F3D56"/>
<path id="Vector_53" d="M117.941 123.094C109.595 104.009 90.2182 94.0158 74.6607 100.774C39.998 115.72 64.7326 180.174 100.436 171.35L101.987 177.315L112.311 172.83L108.982 167.637C121.407 159.234 125.507 140.398 117.941 123.094Z" fill="url(#paint15_linear)"/>
<path id="Vector_54" d="M110.544 166.915L98.8427 171.999L99.976 174.59L111.677 169.507L110.544 166.915Z" fill="#3F3D56"/>
<path id="Vector_55" d="M137.616 268.217C137.434 268.262 137.241 268.233 137.08 268.137C136.919 268.04 136.803 267.883 136.757 267.702L105.931 170.341L107.307 170.001L138.134 267.361C138.156 267.451 138.161 267.545 138.147 267.637C138.133 267.728 138.101 267.817 138.053 267.896C138.005 267.976 137.942 268.045 137.867 268.1C137.792 268.155 137.707 268.195 137.616 268.217Z" fill="#3F3D56"/>
</g>
<path id="Vector_56" d="M146.509 299H69.4906C69.3605 299 69.2357 298.947 69.1437 298.854C69.0517 298.76 69 298.633 69 298.5C69 298.367 69.0517 298.24 69.1437 298.146C69.2357 298.053 69.3605 298 69.4906 298H146.509C146.64 298 146.764 298.053 146.856 298.146C146.948 298.24 147 298.367 147 298.5C147 298.633 146.948 298.76 146.856 298.854C146.764 298.947 146.64 299 146.509 299Z" fill="#CCCCCC"/>
<path id="Vector_57" d="M333.535 299H260.465C260.342 299 260.224 298.947 260.136 298.854C260.049 298.76 260 298.633 260 298.5C260 298.367 260.049 298.24 260.136 298.146C260.224 298.053 260.342 298 260.465 298H333.535C333.658 298 333.776 298.053 333.864 298.146C333.951 298.24 334 298.367 334 298.5C334 298.633 333.951 298.76 333.864 298.854C333.776 298.947 333.658 299 333.535 299Z" fill="#CCCCCC"/>
<path id="Vector_58" d="M246.522 280H171.478C171.351 280 171.23 279.947 171.14 279.854C171.05 279.76 171 279.633 171 279.5C171 279.367 171.05 279.24 171.14 279.146C171.23 279.053 171.351 279 171.478 279H246.522C246.649 279 246.77 279.053 246.86 279.146C246.95 279.24 247 279.367 247 279.5C247 279.633 246.95 279.76 246.86 279.854C246.77 279.947 246.649 280 246.522 280Z" fill="#CCCCCC"/>
<path id="Vector_59" d="M207 255C211.418 255 215 251.866 215 248C215 244.134 211.418 241 207 241C202.582 241 199 244.134 199 248C199 251.866 202.582 255 207 255Z" fill="white"/>
<g id="eye">
<path id="Vector_60" d="M293.815 265.415C295.064 265.415 296.077 264.405 296.077 263.16C296.077 261.914 295.064 260.904 293.815 260.904C292.565 260.904 291.552 261.914 291.552 263.16C291.552 264.405 292.565 265.415 293.815 265.415Z" fill="#3F3D56"/>
<path id="Vector_61" d="M110.971 267.041C112.252 267.041 113.291 266.006 113.291 264.729C113.291 263.452 112.252 262.417 110.971 262.417C109.69 262.417 108.652 263.452 108.652 264.729C108.652 266.006 109.69 267.041 110.971 267.041Z" fill="#3F3D56"/>
<path id="Vector_62" d="M206.853 249.983C208.134 249.983 209.172 248.948 209.172 247.671C209.172 246.394 208.134 245.359 206.853 245.359C205.572 245.359 204.533 246.394 204.533 247.671C204.533 248.948 205.572 249.983 206.853 249.983Z" fill="#3F3D56"/>
</g>
<g id="smile">
<path id="Vector_63" d="M300.863 279.681C300.969 280.264 300.959 280.862 300.834 281.441C300.709 282.02 300.47 282.569 300.132 283.056C299.794 283.543 299.363 283.959 298.863 284.28C298.364 284.601 297.806 284.821 297.221 284.927C296.636 285.033 296.036 285.023 295.456 284.898C294.875 284.773 294.324 284.535 293.835 284.198C293.347 283.861 292.929 283.431 292.607 282.934C292.285 282.436 292.065 281.88 291.958 281.297V281.297L291.957 281.288C291.512 278.837 293.413 277.969 295.872 277.526C298.332 277.082 300.418 277.23 300.863 279.681Z" fill="white"/>
<path id="Vector_64" d="M100.455 277.188C100.455 279.174 105.586 283.096 111.279 283.096C116.973 283.096 122.311 277.504 122.311 275.518C122.311 273.532 116.973 275.904 111.279 275.904C105.586 275.904 100.455 275.202 100.455 277.188Z" fill="white"/>
<path id="Vector_65" d="M212.376 260.499C212.591 261.676 212.328 262.89 211.645 263.873C210.963 264.857 209.915 265.53 208.735 265.744C207.554 265.959 206.336 265.697 205.349 265.016C204.362 264.335 203.687 263.291 203.472 262.114L203.47 262.106C203.025 259.654 204.927 258.787 207.386 258.343C209.845 257.899 211.931 258.047 212.376 260.499Z" fill="white"/>
</g>
</g>
<defs>
<linearGradient id="paint0_linear" x1="194.5" y1="122" x2="194.5" y2="124" gradientUnits="userSpaceOnUse">
<stop stop-color="#FB7272"/>
<stop offset="1" stop-color="#F2D674" stop-opacity="0.58"/>
</linearGradient>
<linearGradient id="paint1_linear" x1="193" y1="168" x2="193" y2="172" gradientUnits="userSpaceOnUse">
<stop stop-color="#FB7272"/>
<stop offset="1" stop-color="#F2D674" stop-opacity="0.58"/>
</linearGradient>
<linearGradient id="paint2_linear" x1="152" y1="160" x2="152" y2="164" gradientUnits="userSpaceOnUse">
<stop stop-color="#E04AD1"/>
<stop offset="1" stop-color="#52E9CE" stop-opacity="0.76"/>
</linearGradient>
<linearGradient id="paint3_linear" x1="172.5" y1="138" x2="172.5" y2="140" gradientUnits="userSpaceOnUse">
<stop stop-color="#FB7272"/>
<stop offset="1" stop-color="#F2D674" stop-opacity="0.58"/>
</linearGradient>
<linearGradient id="paint4_linear" x1="249" y1="226" x2="249" y2="229" gradientUnits="userSpaceOnUse">
<stop stop-color="#E04AD1"/>
<stop offset="1" stop-color="#52E9CE" stop-opacity="0.76"/>
</linearGradient>
<linearGradient id="paint5_linear" x1="207.5" y1="198" x2="207.5" y2="206" gradientUnits="userSpaceOnUse">
<stop stop-color="#E04AD1"/>
<stop offset="1" stop-color="#52E9CE" stop-opacity="0.76"/>
</linearGradient>
<linearGradient id="paint6_linear" x1="235.5" y1="169" x2="235.5" y2="172" gradientUnits="userSpaceOnUse">
<stop stop-color="#E04AD1"/>
<stop offset="1" stop-color="#52E9CE" stop-opacity="0.76"/>
</linearGradient>
<linearGradient id="paint7_linear" x1="246.5" y1="198" x2="246.5" y2="201" gradientUnits="userSpaceOnUse">
<stop stop-color="#FB7272"/>
<stop offset="1" stop-color="#F2D674" stop-opacity="0.58"/>
</linearGradient>
<linearGradient id="paint8_linear" x1="307.928" y1="234.274" x2="307.928" y2="258.053" gradientUnits="userSpaceOnUse">
<stop stop-color="#5E55F1"/>
<stop offset="1" stop-color="#CA4FB6" stop-opacity="0.98"/>
</linearGradient>
<linearGradient id="paint9_linear" x1="105.418" y1="234.031" x2="105.418" y2="257.359" gradientUnits="userSpaceOnUse">
<stop stop-color="#5E55F1"/>
<stop offset="1" stop-color="#CA4FB6" stop-opacity="0.98"/>
</linearGradient>
<linearGradient id="paint10_linear" x1="202.671" y1="214.711" x2="202.671" y2="238.04" gradientUnits="userSpaceOnUse">
<stop stop-color="#5E55F1"/>
<stop offset="1" stop-color="#CA4FB6" stop-opacity="0.98"/>
</linearGradient>
<linearGradient id="paint11_linear" x1="110.57" y1="74.6183" x2="110.862" y2="136.456" gradientUnits="userSpaceOnUse">
<stop stop-color="#F94F4F"/>
<stop offset="1" stop-color="#F15252" stop-opacity="0.25"/>
</linearGradient>
<linearGradient id="paint12_linear" x1="321.416" y1="52" x2="321.416" y2="113.787" gradientUnits="userSpaceOnUse">
<stop stop-color="#1DE9C4"/>
<stop offset="1" stop-color="#89B8EF" stop-opacity="0.92"/>
</linearGradient>
<linearGradient id="paint13_linear" x1="329.255" y1="90.3797" x2="329.255" y2="169.786" gradientUnits="userSpaceOnUse">
<stop stop-color="#D316AA"/>
<stop offset="1" stop-color="#63C7FF" stop-opacity="0.62"/>
</linearGradient>
<linearGradient id="paint14_linear" x1="301.058" y1="85.05" x2="301.058" y2="166.251" gradientUnits="userSpaceOnUse">
<stop stop-color="#DA1039"/>
<stop offset="1" stop-color="#F0A431" stop-opacity="0.76"/>
</linearGradient>
<linearGradient id="paint15_linear" x1="89.872" y1="98.6616" x2="89.872" y2="177.315" gradientUnits="userSpaceOnUse">
<stop stop-color="#D316AA"/>
<stop offset="1" stop-color="#63C7FF" stop-opacity="0.62"/>
</linearGradient>
</defs>
</svg>
